<svg width="23" height="22" viewBox="0 0 23 22" fill="none" xmlns="http://www.w3.org/2000/svg">
<path d="M11.75 1C6.227 1 1.75 5.477 1.75 11C1.75 16.523 6.227 21 11.75 21C17.273 21 21.75 16.523 21.75 11C21.75 5.477 17.273 1 11.75 1ZM11.75 3.908C13.7 3.908 15.281 5.489 15.281 7.439C15.281 9.389 13.7 10.969 11.75 10.969C9.8 10.969 8.219 9.388 8.219 7.438C8.219 5.488 9.8 3.908 11.75 3.908ZM11.75 19.565C7.858 19.565 4.703 16.951 4.703 15.484C4.703 14.017 7.858 12.828 11.75 12.828C15.642 12.828 18.797 14.017 18.797 15.484C18.797 16.951 15.642 19.565 11.75 19.565Z" fill="black"/>
</svg>
