<?xml version="1.0" encoding="UTF-8" standalone="no"?>
<!DOCTYPE svg PUBLIC "-//W3C//DTD SVG 1.1//EN" "http://www.w3.org/Graphics/SVG/1.1/DTD/svg11.dtd">
<svg width="100%" height="100%" viewBox="0 0 1140 658" version="1.1" xmlns="http://www.w3.org/2000/svg" xmlns:xlink="http://www.w3.org/1999/xlink" xml:space="preserve" xmlns:serif="http://www.serif.com/" style="fill-rule:evenodd;clip-rule:evenodd;stroke-linejoin:round;stroke-miterlimit:2;">
    <path d="M0,5.359L86.957,5.359L86.957,570.256L154.074,570.256L154.074,651.858L0,651.858L0,5.359Z" style="fill-rule:nonzero;"/>
    <path d="M916.416,272.934C923.019,258.663 926.327,239.8 926.327,216.353L926.327,106.803C926.327,83.665 922.871,64.648 915.959,49.777C909.053,34.907 898.24,23.783 883.519,16.412C868.798,9.041 849.583,5.359 825.861,5.359L724.486,5.359L724.486,651.858L811.444,651.858L811.444,350.692C818.336,350.692 823.753,351.53 827.654,353.181C831.561,354.832 834.257,357.469 835.765,361.074C837.261,364.679 838.022,369.483 838.022,375.487L838.022,651.851L925.418,651.851L925.418,379.092C925.418,363.77 923.245,351.446 918.892,342.134C914.54,332.822 906.57,325.529 895.016,320.273C887.987,317.075 879.089,314.412 868.34,312.271C875.182,310.278 881.443,307.763 887.123,304.719C900.045,297.806 909.807,287.211 916.416,272.927L916.416,272.934ZM833.064,265.943C828.86,272.263 822.553,275.41 814.152,275.41L811.45,275.41L811.45,80.196L813.694,80.196C822.708,80.196 829.24,82.53 833.302,87.186C837.351,91.855 839.383,99.29 839.383,109.505L839.383,238.44C839.383,250.467 837.274,259.63 833.07,265.943L833.064,265.943Z" style="fill-rule:nonzero;"/>
    <path d="M593.703,5.359L614.427,491.357L614.871,491.357L624.782,5.359L705.433,5.359L674.347,651.858L566.222,651.858L550.901,179.383L550.456,179.383L550.469,179.383L550.024,179.383L534.704,651.858L426.578,651.858L395.479,5.359L476.131,5.359L486.041,491.357L486.486,491.357L507.21,5.359L593.703,5.359Z" style="fill-rule:nonzero;"/>
    <path d="M1038.57,651.858L995.017,651.858L994.721,421.543L973.855,421.479L936.896,5.359L1022.95,5.359L1037.14,325.039L1039.75,325.039L1053.95,5.359L1140,5.359L1103.04,421.479L1082.17,421.543L1081.88,651.858L1038.32,651.858" style="fill-rule:nonzero;"/>
    <path d="M276.43,657.216C207.856,657.216 174.288,614.436 174.288,562.157L174.288,95.06C174.288,42.781 218.573,0 276.43,0C334.288,0 378.572,42.781 378.572,95.06L378.572,562.15C378.572,614.436 344.998,657.21 276.43,657.21L276.43,657.216ZM288.572,567.206L288.572,90.011C288.572,83.33 283.11,77.868 276.43,77.868C269.75,77.868 264.289,83.33 264.289,90.011L264.289,567.206C264.289,573.887 269.75,579.349 276.43,579.349C283.11,579.349 288.572,573.887 288.572,567.206Z" style="fill-rule:nonzero;"/>
</svg>
