<svg width="1140" height="658" viewBox="0 0 1140 658" fill="none" xmlns="http://www.w3.org/2000/svg">
<path d="M0 5H86.9572V570.571H154.074V652.27H0V5Z" fill="white"/>
<path d="M916.416 272.894C923.019 258.606 926.327 239.721 926.327 216.246V106.565C926.327 83.3996 922.871 64.3598 915.959 49.4714C909.053 34.5831 898.24 23.4458 883.519 16.0662C868.798 8.68658 849.583 5 825.861 5H724.486V652.27H811.444V350.745C818.336 350.745 823.753 351.584 827.654 353.237C831.561 354.89 834.257 357.53 835.765 361.139C837.261 364.748 838.022 369.558 838.022 375.569V652.263H925.418V379.178C925.418 363.838 923.245 351.5 918.892 342.177C914.54 332.854 906.57 325.552 895.016 320.29C887.987 317.088 879.089 314.421 868.34 312.278C875.182 310.283 881.443 307.765 887.123 304.717C900.045 297.796 909.807 287.188 916.416 272.887V272.894ZM833.064 265.895C828.86 272.222 822.553 275.373 814.152 275.373H811.45V79.9261H813.694C822.708 79.9261 829.24 82.2633 833.302 86.9248C837.351 91.5992 839.383 99.0434 839.383 109.27V238.359C839.383 250.4 837.274 259.574 833.07 265.895H833.064Z" fill="white"/>
<path d="M593.702 5L614.426 491.577H614.87L624.781 5H705.432L674.346 652.27H566.221L550.9 179.231H550.455H550.468H550.023L534.703 652.27H426.577L395.479 5H476.13L486.04 491.577H486.485L507.209 5H593.702Z" fill="white"/>
<path d="M1038.57 652.27H995.018L994.722 421.681L973.856 421.616L936.896 5H1022.95L1037.14 325.061H1039.75L1053.95 5H1140L1103.04 421.616L1082.18 421.681L1081.88 652.27H1038.32" fill="white"/>
<path d="M276.431 658C207.857 658 174.289 615.169 174.289 562.827V95.1732C174.289 42.8315 218.574 0 276.431 0C334.289 0 378.573 42.8315 378.573 95.1732V562.82C378.573 615.169 344.999 657.994 276.431 657.994V658ZM288.573 567.882V90.1179C288.573 83.4291 283.111 77.9606 276.431 77.9606C269.751 77.9606 264.29 83.4291 264.29 90.1179V567.882C264.29 574.571 269.751 580.039 276.431 580.039C283.111 580.039 288.573 574.571 288.573 567.882Z" fill="white"/>
</svg>
